<svg xmlns="http://www.w3.org/2000/svg" viewBox="0 0 64 64" role="img" aria-label="Gestrategic">
  <defs>
    <linearGradient id="g" x1="0" y1="0" x2="1" y2="1">
      <stop offset="0%" stop-color="#173f77" />
      <stop offset="100%" stop-color="#0f2f5c" />
    </linearGradient>
  </defs>
  <rect width="64" height="64" rx="14" fill="#ffffff" />
  <path d="M50 17C45.9 13.1 40.4 11 34.3 11C22 11 12 21 12 33.3C12 45.6 22 55.6 34.3 55.6C40.2 55.6 45.7 53.4 49.9 49.5L44.8 43.9C42 46.4 38.4 47.8 34.3 47.8C26.3 47.8 19.8 41.3 19.8 33.3C19.8 25.3 26.3 18.8 34.3 18.8C38.4 18.8 42.1 20.3 44.9 22.9L50 17Z" fill="url(#g)" />
  <path d="M10 33H20L24 26L29 42L34 17L39 37L43 30H54" fill="none" stroke="#36c3c5" stroke-linecap="round" stroke-linejoin="round" stroke-width="3.5" />
</svg>
